<svg xmlns="http://www.w3.org/2000/svg" viewBox="0 0 64 64" width="64" height="64">
  <defs>
    <linearGradient id="g" x1="0" y1="0" x2="1" y2="1">
      <stop offset="0" stop-color="#0e7c86"/>
      <stop offset="1" stop-color="#56c2c8"/>
    </linearGradient>
  </defs>
  <rect width="64" height="64" rx="16" fill="url(#g)"/>
  <!-- gelombang -->
  <path d="M6 44c5 0 5-4 10-4s5 4 10 4 5-4 10-4 5 4 10 4 5-4 10-4v8c-5 0-5 4-10 4s-5-4-10-4-5 4-10 4-5-4-10-4-5 4-10 4z" fill="#ffffff" opacity=".9"/>
  <!-- perahu -->
  <path d="M20 30h24l-4 8H24z" fill="#e0a85b"/>
  <rect x="31" y="16" width="2.4" height="14" rx="1" fill="#0b2a3a"/>
  <path d="M33.4 17l9 9-9 1.5z" fill="#ffffff"/>
</svg>
